<?xml version="1.0" encoding="UTF-8"?>
<svg version="1.1" xmlns="http://www.w3.org/2000/svg" width="270" height="239">
<path d="M0 0 C5.17814602 3.41555235 9.22749144 7.06671958 13 12 C13.99 12.33 14.98 12.66 16 13 C16.25652344 12.4121875 16.51304688 11.824375 16.77734375 11.21875 C20.88865254 3.75797239 29.02801391 -0.06940105 36.8125 -2.5859375 C48.28252482 -4.75704934 58.36870186 -2.86108267 68.05078125 3.4921875 C76.13148665 9.74299368 80.87186 18.05209017 82.4921875 28.03125 C83.48199565 37.00012381 82.21391734 43.03875825 78 51 C78.77085937 51.29390625 79.54171875 51.5878125 80.3359375 51.890625 C85.99525278 54.24729001 88.69119405 57.39936708 91 63 C91.47460314 65.78899142 91.59953751 68.55014734 91.6875 71.375 C91.72166016 72.09171875 91.75582031 72.8084375 91.79101562 73.546875 C92.00414709 78.36625598 92.02722054 83.17652116 92 88 C97.51155789 86.02149204 102.72271377 83.78234561 107.9375 81.125 C108.97910278 80.60099609 108.97910278 80.60099609 110.04174805 80.06640625 C114.54454803 77.78688019 118.96646264 75.40116966 123.30078125 72.8125 C125 72 125 72 128 72 C128 92.46 128 112.92 128 134 C123.72319699 135.06920075 123.4760932 135.10793546 119.9453125 133.12109375 C118.7847937 132.48469971 118.7847937 132.48469971 117.60083008 131.83544922 C116.78380615 131.37412598 115.96678223 130.91280273 115.125 130.4375 C107.23494883 126.11977282 99.32615775 122.39067056 91 119 C91.02094727 119.81678223 91.04189453 120.63356445 91.06347656 121.47509766 C91.1468513 125.19160555 91.19872988 128.90791633 91.25 132.625 C91.28351563 133.91019531 91.31703125 135.19539062 91.3515625 136.51953125 C91.4739057 148.32565049 91.4739057 148.32565049 87 153 C84.15475584 155.86566457 81.08205797 158.86893388 76.91219711 159.13142776 C76.04428669 159.13440243 75.17637627 159.13737709 74.28216553 159.14044189 C73.28680283 159.14615204 72.29144012 159.15186218 71.26591492 159.15774536 C70.16979385 159.15886322 69.07367279 159.15998108 67.94433594 159.16113281 C66.79300674 159.16609772 65.64167755 159.17106262 64.45545959 159.17617798 C60.63175873 159.19082945 56.80809937 159.19760698 52.984375 159.203125 C51.00322439 159.20742208 49.02207378 159.21171966 47.04092336 159.2160995 C41.51809966 159.22791682 35.99528603 159.23544984 30.47245097 159.2388947 C23.33366362 159.24337201 16.19506807 159.26090302 9.05633903 159.2898953 C3.53692603 159.31153146 -1.98243309 159.32160006 -7.50188804 159.32293582 C-10.79748929 159.32398277 -14.0928695 159.33131623 -17.38843536 159.34775543 C-21.06802407 159.36479818 -24.74714572 159.36293953 -28.42675781 159.35644531 C-30.05879402 159.37026749 -30.05879402 159.37026749 -31.72380066 159.3843689 C-38.74058369 159.3455492 -43.96874032 158.33706267 -49.25 153.375 C-56.05146353 145.83412703 -54.36146093 133.40224516 -54.40625 123.84765625 C-54.41190475 123.02991667 -54.41755951 122.21217709 -54.42338562 121.36965752 C-54.45321516 117.04631162 -54.47177394 112.72309666 -54.48046875 108.3996582 C-54.49144801 103.96007392 -54.53956458 99.5217133 -54.59641266 95.08251286 C-54.63383539 91.64302648 -54.64408524 88.20383093 -54.6471405 84.76415825 C-54.65315135 83.12840486 -54.66906452 81.49265398 -54.69551086 79.85710335 C-54.82676461 71.1202476 -54.75670555 64.17634147 -49.2467041 56.89109802 C-47.65352183 54.92630671 -47.65352183 54.92630671 -48.4375 51.8125 C-48.953125 50.884375 -49.46875 49.95625 -50 49 C-50.53286208 47.77599998 -51.05343849 46.5465885 -51.5625 45.3125 C-52.036875 44.219375 -52.51125 43.12625 -53 42 C-56.04202465 32.87392605 -53.75007534 24.64468161 -49.76171875 16.203125 C-44.76191833 7.11257878 -37.75654893 1.7419236 -28.1796875 -2.14453125 C-19.54188558 -4.46846076 -7.93989797 -4.36847668 0 0 Z M34.171875 19.484375 C30.4659027 23.40622918 28.15675304 27.54303493 28 33 C28.66483386 38.360223 30.17105476 42.72117122 34.125 46.5 C38.78506816 49.93631077 43.58423307 51.45167166 49.36328125 50.6875 C55.20030558 49.11788001 58.97604201 46.23611518 62 41 C64.37451735 35.43916449 64.41448736 30.68951646 62.16796875 25.078125 C59.29633643 19.96873237 55.21513276 17.05981126 49.625 15.4375 C43.7953683 14.48410197 38.77461065 15.74711101 34.171875 19.484375 Z M-28.86328125 19.5546875 C-32.20084007 23.13917788 -33.79170006 26.00080144 -34 31 C-34.12375 32.11375 -34.2475 33.2275 -34.375 34.375 C-33.7957174 39.97473181 -31.03736248 43.81711163 -27.25 47.875 C-22.00383757 50.49808122 -17.05625166 51.64397216 -11.3125 50.0625 C-6.58153 48.1982824 -3.6603944 45.28725429 -1 41 C0.00635246 38.63537508 0.00635246 38.63537508 0 36 C0.09087891 34.96166016 0.09087891 34.96166016 0.18359375 33.90234375 C0.48775405 28.38137345 -0.27599293 25.32790011 -4 21 C-10.92095978 13.88129852 -21.18573647 13.14868578 -28.86328125 19.5546875 Z M-34 69 C-34.96950161 71.90850482 -35.12657652 73.7589226 -35.12939453 76.78417969 C-35.13254669 77.75659607 -35.13569885 78.72901245 -35.13894653 79.730896 C-35.1369223 80.78391907 -35.13489807 81.83694214 -35.1328125 82.921875 C-35.13376923 84.01405334 -35.13472595 85.10623169 -35.13571167 86.23150635 C-35.13639315 88.55163633 -35.1345411 90.8717682 -35.13037109 93.19189453 C-35.12508396 96.69438135 -35.13028491 100.19673627 -35.13671875 103.69921875 C-35.13955353 114.27976928 -35.07751884 124.79953248 -34.21435547 135.34863281 C-34 138 -34 138 -34 141 C-20.19659113 141.02333058 -6.3931853 141.04091354 7.41023922 141.05181217 C13.81899128 141.05704166 20.22773015 141.0641405 26.63647461 141.07543945 C32.81559441 141.08626599 38.99470148 141.09227634 45.17383003 141.09487724 C47.5370561 141.09673192 49.90028144 141.10035332 52.26350212 141.10573006 C55.56101896 141.11293738 58.85848247 141.11399107 62.15600586 141.11352539 C63.63738037 141.1189183 63.63738037 141.1189183 65.14868164 141.12442017 C66.48859413 141.12235817 66.48859413 141.12235817 67.85557556 141.12025452 C69.02671355 141.12163721 69.02671355 141.12163721 70.22151089 141.12304783 C72.02504214 141.19382943 72.02504214 141.19382943 73 140 C73.09956278 137.8273732 73.12799719 135.65146894 73.12939453 133.4765625 C73.13114685 132.79527283 73.13289917 132.11398315 73.13470459 131.41204834 C73.13912242 129.14967333 73.13618538 126.88737587 73.1328125 124.625 C73.13348556 123.0594074 73.1344556 121.4938149 73.13571167 119.92822266 C73.13718855 116.64289355 73.13503441 113.35759158 73.13037109 110.07226562 C73.1246738 105.85179484 73.12795286 101.63138764 73.13394356 97.41091919 C73.13754944 94.17683428 73.13641046 90.94276455 73.13381577 87.7086792 C73.13314657 86.15207919 73.13397466 84.59547782 73.13629532 83.03887939 C73.1388223 80.86702804 73.13498065 78.69528104 73.12939453 76.5234375 C73.12859894 75.28513184 73.12780334 74.04682617 73.12698364 72.77099609 C73.31611777 70.09145258 73.31611777 70.09145258 72 69 C70.62123975 68.9046081 69.23763084 68.87811378 67.85557556 68.87974548 C66.96230057 68.87837082 66.06902557 68.87699615 65.14868164 68.87557983 C64.16109863 68.87917511 63.17351562 68.88277039 62.15600586 68.88647461 C61.12198135 68.88632858 60.08795685 68.88618256 59.02259827 68.8860321 C55.58665914 68.88673173 52.15077347 68.89452642 48.71484375 68.90234375 C46.33972707 68.90420775 43.96461 68.90563174 41.5894928 68.90663147 C35.32423856 68.91045803 29.05900733 68.9202895 22.79376221 68.93133545 C16.4061311 68.9415466 10.01849629 68.94612845 3.63085938 68.95117188 C-8.91277026 68.96191164 -21.45638391 68.97879873 -34 69 Z " fill="#FDFAFA" transform="translate(100,43)"/>
<path d="M0 0 C0.33 0 0.66 0 1 0 C0.99777939 0.99478867 0.99555878 1.98957733 0.99327087 3.01451111 C0.97294947 12.41532194 0.95798461 21.81612828 0.94818783 31.21695614 C0.94298181 36.04935056 0.9359258 40.88172716 0.92456055 45.71411133 C0.91365033 50.38253007 0.90770599 55.05093174 0.90512276 59.71936226 C0.90328312 61.49543082 0.89969089 63.2714985 0.89426994 65.04755974 C0.8869514 67.54596816 0.88601358 70.0443071 0.88647461 72.54272461 C0.88287933 73.26777695 0.87928406 73.99282928 0.87557983 74.73985291 C0.88576526 79.88136475 1.34495135 84.90189178 2 90 C1.34 89.67 0.68 89.34 0 89 C-2.73482837 80.42022897 -2.29085209 71.54264844 -2.265625 62.63671875 C-2.26697421 60.95522506 -2.26891688 59.27373175 -2.27142334 57.59223938 C-2.27435849 54.0848109 -2.27012632 50.57748486 -2.26074219 47.07006836 C-2.24930437 42.5765383 -2.25594452 38.08324605 -2.26788712 33.58972454 C-2.27511174 30.12476302 -2.27281578 26.659858 -2.26763153 23.19489479 C-2.26629898 21.53750391 -2.26792891 19.88010787 -2.27259064 18.22272301 C-2.27767064 15.91095722 -2.26992711 13.59957873 -2.25878906 11.2878418 C-2.25719788 9.97373825 -2.25560669 8.6596347 -2.25396729 7.30570984 C-2.01880815 4.24481216 -1.62682372 2.55395377 0 0 Z " fill="#FAE3E3" transform="translate(48,104)"/>
<path d="M0 0 C0 20.46 0 40.92 0 62 C-1.98 62.495 -1.98 62.495 -4 63 C-6.25 61.5625 -6.25 61.5625 -8 60 C-6.35 60 -4.7 60 -3 60 C-2.67 41.19 -2.34 22.38 -2 3 C-3.98 3.99 -3.98 3.99 -6 5 C-6.66 4.34 -7.32 3.68 -8 3 C-3.375 0 -3.375 0 0 0 Z " fill="#F8DBDC" transform="translate(228,115)"/>
<path d="M0 0 C2.97 0.33 5.94 0.66 9 1 C9 1.99 9 2.98 9 4 C6.69 3.34 4.38 2.68 2 2 C2.02094727 2.81678223 2.04189453 3.63356445 2.06347656 4.47509766 C2.1468513 8.19160555 2.19872988 11.90791633 2.25 15.625 C2.28351563 16.91019531 2.31703125 18.19539063 2.3515625 19.51953125 C2.47325212 31.26257945 2.47325212 31.26257945 -2 36 C-2.66 35.34 -3.32 34.68 -4 34 C-3.34 33.01 -2.68 32.02 -2 31 C-1.34 31 -0.68 31 0 31 C0 20.77 0 10.54 0 0 Z " fill="#F0D3D2" transform="translate(189,160)"/>
<path d="M0 0 C0.66 0.33 1.32 0.66 2 1 C-0.6516491 5.88461676 -3.57961219 10.19320406 -9 12 C-9 12.66 -9 13.32 -9 14 C-10.32 13.67 -11.64 13.34 -13 13 C-13 12.01 -13 11.02 -13 10 C-12.01 10.33 -11.02 10.66 -10 11 C-9.75507812 10.41734375 -9.51015625 9.8346875 -9.2578125 9.234375 C-7.79564126 6.63697764 -6.15259586 5.16024169 -3.875 3.25 C-3.15054688 2.63640625 -2.42609375 2.0228125 -1.6796875 1.390625 C-0.84824219 0.70226563 -0.84824219 0.70226563 0 0 Z " fill="#DFAEAC" transform="translate(126,45)"/>
<path d="M0 0 C0.66 0.33 1.32 0.66 2 1 C1.896875 2.299375 1.79375 3.59875 1.6875 4.9375 C1.64274329 10.57684547 3.95290554 14.39671087 7 19 C5.68 19.33 4.36 19.66 3 20 C-0.8741391 13.58345712 -1.80205735 8.48148574 -1 1 C-0.67 0.67 -0.34 0.34 0 0 Z " fill="#D9A2A3" transform="translate(65,71)"/>
<path d="M0 0 C3.56150779 3.62852541 3.57481461 7.48655964 3.75 12.3125 C3.79253906 13.04662109 3.83507812 13.78074219 3.87890625 14.53710938 C4.10105464 19.17342854 3.79719106 23.42823008 3 28 C2.67 28 2.34 28 2 28 C1.93941406 26.90042969 1.87882813 25.80085938 1.81640625 24.66796875 C1.35284836 16.42932327 0.8335523 8.21137689 0 0 Z " fill="#F0C5C5" transform="translate(188,102)"/>
<path d="M0 0 C0.33 0 0.66 0 1 0 C2.20117954 9.06107174 2.38641632 15.82959363 -2 24 C-3.1700097 20.08263419 -2.69584017 17.02040985 -2 13 C-1.34 13 -0.68 13 0 13 C0 8.71 0 4.42 0 0 Z " fill="#E5B6B7" transform="translate(181,68)"/>
<path d="M0 0 C0.99 0 1.98 0 3 0 C4.02328619 3.19411474 3.96256253 5.4215884 3.25 8.6875 C3.09015625 9.47511719 2.9303125 10.26273438 2.765625 11.07421875 C2.38664062 12.02748047 2.38664062 12.02748047 2 13 C1.01 13.33 0.02 13.66 -1 14 C-0.835 12.989375 -0.67 11.97875 -0.5 10.9375 C-0.03014231 7.23737067 0.07599849 3.72392609 0 0 Z " fill="#DDACAC" transform="translate(99,72)"/>
<path d="M0 0 C0.33 0.99 0.66 1.98 1 3 C0.01 3.33 -0.98 3.66 -2 4 C-2.33 4.99 -2.66 5.98 -3 7 C-3.99 7.33 -4.98 7.66 -6 8 C-6.66 8.66 -7.32 9.32 -8 10 C-8 9.34 -8 8.68 -8 8 C-9.65 8 -11.3 8 -13 8 C-13 7.67 -13 7.34 -13 7 C-12.39671875 6.82984375 -11.7934375 6.6596875 -11.171875 6.484375 C-6.48936628 5.06451752 -3.14688851 3.96781594 0 0 Z " fill="#E5BCBC" transform="translate(97,86)"/>
<path d="M0 0 C-2.98602073 2.54364729 -5.17433195 3.33050809 -9 4 C-11.23408113 4.99083967 -11.23408113 4.99083967 -13 6 C-13 5.01 -13 4.02 -13 3 C-8.44573816 0.33409063 -5.26053037 -0.31563182 0 0 Z " fill="#EAC1BD" transform="translate(147,57)"/>
<path d="M0 0 C0.66 0.33 1.32 0.66 2 1 C1.01 2.485 1.01 2.485 0 4 C-0.66 4 -1.32 4 -2 4 C-2.33 4.99 -2.66 5.98 -3 7 C-5.0625 8.6875 -5.0625 8.6875 -7 10 C-7.66 9.67 -8.32 9.34 -9 9 C-6.21000549 5.51250686 -3.74764169 2.49842779 0 0 Z " fill="#EBC6C4" transform="translate(63,45)"/>
<path d="M0 0 C3.05402088 1.52701044 3.65869481 3.95157912 5 7 C5 7.99 5 8.98 5 10 C3.68 9.67 2.36 9.34 1 9 C0 2.25 0 2.25 0 0 Z " fill="#E3B2AE" transform="translate(66,81)"/>
<path d="M0 0 C0.66 0.33 1.32 0.66 2 1 C0.12050295 4.57104439 -1.17053157 6.54744301 -5 8 C-5 6.68 -5 5.36 -5 4 C-2.5 1.75 -2.5 1.75 0 0 Z " fill="#EED0CF" transform="translate(126,45)"/>
<path d="M0 0 C0.66 0.33 1.32 0.66 2 1 C-0.1875 3.5625 -0.1875 3.5625 -3 6 C-5.8125 5.8125 -5.8125 5.8125 -8 5 C-6.35197949 1.70395897 -3.32254422 1.22409524 0 0 Z " fill="#F6CECB" transform="translate(204,126)"/>
<path d="M0 0 C2.31 0.33 4.62 0.66 7 1 C7.33 2.32 7.66 3.64 8 5 C8.66 5 9.32 5 10 5 C9.67 6.32 9.34 7.64 9 9 C8.2575 8.071875 7.515 7.14375 6.75 6.1875 C4.70974439 3.72873042 2.67528677 1.78352451 0 0 Z " fill="#E9BFBE" transform="translate(89,59)"/>
<path d="M0 0 C1.32 0.66 2.64 1.32 4 2 C4.3125 5.25 4.3125 5.25 4 9 C1.5 11.4375 1.5 11.4375 -1 13 C-0.690625 12.4225 -0.38125 11.845 -0.0625 11.25 C1.60116266 7.72694967 2.35719059 6.04775907 1.0625 2.25 C0.711875 1.5075 0.36125 0.765 0 0 Z " fill="#E4ACAC" transform="translate(50,91)"/>
<path d="M0 0 C1.48280196 0.78483659 2.9611498 1.57809334 4.4375 2.375 C5.67306641 3.03628906 5.67306641 3.03628906 6.93359375 3.7109375 C9 5 9 5 10 7 C8.35 6.67 6.7 6.34 5 6 C5 5.34 5 4.68 5 4 C3.35 3.67 1.7 3.34 0 3 C0 2.01 0 1.02 0 0 Z " fill="#D9A3A4" transform="translate(177,93)"/>
<path d="M0 0 C0.99 0 1.98 0 3 0 C3 2.97 3 5.94 3 9 C2.01 9.33 1.02 9.66 0 10 C0.185625 9.0925 0.37125 8.185 0.5625 7.25 C0.95734621 4.31685676 0.94691572 2.7355343 0 0 Z " fill="#DA9A9A" transform="translate(162,71)"/>
<path d="M0 0 C0.75 1.625 0.75 1.625 1 4 C-0.9375 7.25 -0.9375 7.25 -3 10 C-3.66 9.34 -4.32 8.68 -5 8 C-4.34 7.01 -3.68 6.02 -3 5 C-2.34 5 -1.68 5 -1 5 C-0.67 3.35 -0.34 1.7 0 0 Z " fill="#EEC5C2" transform="translate(190,186)"/>
<path d="M0 0 C-1.70828921 2.10633718 -2.52148416 2.93801608 -5.26171875 3.29296875 C-6.06222656 3.25816406 -6.86273438 3.22335938 -7.6875 3.1875 C-8.89986328 3.14689453 -8.89986328 3.14689453 -10.13671875 3.10546875 C-11.05904297 3.05326172 -11.05904297 3.05326172 -12 3 C-8.48214012 -0.51785988 -4.80656342 -0.10924008 0 0 Z " fill="#EAB1B2" transform="translate(81,40)"/>
<path d="M0 0 C0.99 0.33 1.98 0.66 3 1 C3.33 3.97 3.66 6.94 4 10 C3.34 9.67 2.68 9.34 2 9 C1.3671875 6.93359375 1.3671875 6.93359375 0.875 4.4375 C0.70742188 3.61121094 0.53984375 2.78492188 0.3671875 1.93359375 C0.24601562 1.29550781 0.12484375 0.65742188 0 0 Z " fill="#DD9898" transform="translate(46,184)"/>
<path d="M0 0 C0 0.99 0 1.98 0 3 C-1.98 3.66 -3.96 4.32 -6 5 C-6.66 4.34 -7.32 3.68 -8 3 C-3.375 0 -3.375 0 0 0 Z " fill="#E7A3A0" transform="translate(228,115)"/>
<path d="M0 0 C1.98 1.65 3.96 3.3 6 5 C5.67 5.66 5.34 6.32 5 7 C2.5625 6.1875 2.5625 6.1875 0 5 C-0.33 4.01 -0.66 3.02 -1 2 C-0.67 1.34 -0.34 0.68 0 0 Z " fill="#DFB2B1" transform="translate(106,48)"/>
<path d="M0 0 C0.99 0.33 1.98 0.66 3 1 C2.814375 1.5775 2.62875 2.155 2.4375 2.75 C1.95976454 5.20692525 2.24270636 6.64397534 3 9 C2.01 8.67 1.02 8.34 0 8 C0 5.36 0 2.72 0 0 Z " fill="#D99998" transform="translate(127,71)"/>
</svg>
